name rise44.8762peak52.3436fall86.788.mot
datacolumns 19
datarows 20
range 21.34325600000000 21.37491700000000
endheader
time	ground_force1_vx	ground_force1_vy	ground_force1_vz	ground_force1_px	ground_force1_py	ground_force1_pz	ground_force2_vx	ground_force2_vy	ground_force2_vz	ground_force2_px	ground_force2_py	ground_force2_pz	ground_torque1_x	ground_torque1_y	ground_torque1_z	ground_torque2_x	ground_torque2_y	ground_torque2_z	
21.34325600000000	-3.99573600000000	40.61304800000000	-11.43869800000000	0.30305800000000	0.00000000000000	0.11438700000000	-42.14541900000000	800.99307199999998	-59.94766500000000	0.10113100000000	0.00000000000000	-0.08127100000000	0.00000000000000	-7.15271100000000	0.00000000000000	0.00000000000000	-16.41444900000000	0.00000000000000	
21.34491600000000	-4.42628600000000	47.42866400000000	-12.91045000000000	0.30640800000000	0.00000000000000	0.11534000000000	-42.86448900000000	799.41992600000003	-59.76414100000000	0.10041300000000	0.00000000000000	-0.08117600000000	0.00000000000000	-8.12396300000000	0.00000000000000	0.00000000000000	-16.37243200000000	0.00000000000000	
21.34658000000000	-4.78870200000000	54.28246000000000	-14.26407600000000	0.30940500000000	0.00000000000000	0.11623000000000	-43.60160800000000	797.71385999999995	-59.55591000000000	0.09969400000000	0.00000000000000	-0.08107800000000	0.00000000000000	-9.03002700000000	0.00000000000000	0.00000000000000	-16.33203000000000	0.00000000000000	
21.34825400000000	-5.07028800000000	61.08158400000000	-15.46901300000000	0.31210600000000	0.00000000000000	0.11706300000000	-44.35645600000000	795.87222199999997	-59.32251400000000	0.09897300000000	0.00000000000000	-0.08097700000000	0.00000000000000	-9.85089500000000	0.00000000000000	0.00000000000000	-16.29329500000000	0.00000000000000	
21.34992100000000	-5.26225800000000	67.75666400000000	-16.50447700000000	0.31455400000000	0.00000000000000	0.11785000000000	-45.12861300000000	793.89234699999997	-59.06352800000000	0.09825200000000	0.00000000000000	-0.08087200000000	0.00000000000000	-10.57278400000000	0.00000000000000	0.00000000000000	-16.25626300000000	0.00000000000000	
21.35158300000000	-5.35977700000000	74.26380100000000	-17.35966700000000	0.31678700000000	0.00000000000000	0.11859400000000	-45.91756200000000	791.77156200000002	-58.77855600000000	0.09752900000000	0.00000000000000	-0.08076400000000	0.00000000000000	-11.18832300000000	0.00000000000000	0.00000000000000	-16.22095800000000	0.00000000000000	
21.35325000000000	-5.36168400000000	80.58414200000000	-18.03310900000000	0.31883400000000	0.00000000000000	0.11930200000000	-46.72268100000000	789.50719000000004	-58.46723700000000	0.09680600000000	0.00000000000000	-0.08065200000000	0.00000000000000	-11.69619500000000	0.00000000000000	0.00000000000000	-16.18738700000000	0.00000000000000	
21.35492200000000	-5.26996300000000	86.72146900000000	-18.53135600000000	0.32072100000000	0.00000000000000	0.11997700000000	-47.54324800000000	787.09655199999997	-58.12924400000000	0.09608100000000	0.00000000000000	-0.08053700000000	0.00000000000000	-12.10033500000000	0.00000000000000	0.00000000000000	-16.15554000000000	0.00000000000000	
21.35658000000000	-5.08905200000000	92.69834000000000	-18.86725800000000	0.32246800000000	0.00000000000000	0.12062200000000	-48.37843500000000	784.53697299999999	-57.76428700000000	0.09535600000000	0.00000000000000	-0.08041900000000	0.00000000000000	-12.40883200000000	0.00000000000000	0.00000000000000	-16.12539200000000	0.00000000000000	
21.35825100000000	-4.82508400000000	98.55137300000000	-19.05801000000000	0.32409400000000	0.00000000000000	0.12124200000000	-49.22731300000000	781.82578799999999	-57.37211500000000	0.09463000000000	0.00000000000000	-0.08029700000000	0.00000000000000	-12.63268300000000	0.00000000000000	0.00000000000000	-16.09689900000000	0.00000000000000	
21.35992100000000	-4.48512100000000	104.32618900000000	-19.12319400000000	0.32561400000000	0.00000000000000	0.12183800000000	-50.08884700000000	778.96034699999996	-56.95251600000000	0.09390300000000	0.00000000000000	-0.08017100000000	0.00000000000000	-12.78452100000000	0.00000000000000	0.00000000000000	-16.07000300000000	0.00000000000000	
21.36159300000000	-4.07645400000000	110.07250600000000	-19.08296800000000	0.32703900000000	0.00000000000000	0.12241300000000	-50.96190000000000	775.93802400000004	-56.50532000000000	0.09317600000000	0.00000000000000	-0.08004200000000	0.00000000000000	-12.87743400000000	0.00000000000000	0.00000000000000	-16.04462400000000	0.00000000000000	
21.36325200000000	-3.60601600000000	115.83973800000000	-18.95651300000000	0.32838100000000	0.00000000000000	0.12296800000000	-51.84523100000000	772.75621999999998	-56.03040400000000	0.09244800000000	0.00000000000000	-0.07990900000000	0.00000000000000	-12.92394700000000	0.00000000000000	0.00000000000000	-16.02067000000000	0.00000000000000	
21.36491300000000	-3.07992200000000	121.67336100000000	-18.76083700000000	0.32964800000000	0.00000000000000	0.12350400000000	-52.73750000000000	769.41237400000000	-55.52768600000000	0.09172100000000	0.00000000000000	-0.07977200000000	0.00000000000000	-12.93521800000000	0.00000000000000	0.00000000000000	-15.99802700000000	0.00000000000000	
21.36658600000000	-2.50317000000000	127.61219400000000	-18.50994300000000	0.33085000000000	0.00000000000000	0.12402400000000	-53.63726700000000	765.90396699999997	-54.99713500000000	0.09099400000000	0.00000000000000	-0.07963200000000	0.00000000000000	-12.92048900000000	0.00000000000000	0.00000000000000	-15.97656600000000	0.00000000000000	
21.36824700000000	-1.87947400000000	133.68664500000000	-18.21437900000000	0.33199100000000	0.00000000000000	0.12452800000000	-54.54299300000000	762.22853599999996	-54.43876700000000	0.09026700000000	0.00000000000000	-0.07948800000000	0.00000000000000	-12.88676600000000	0.00000000000000	0.00000000000000	-15.95614100000000	0.00000000000000	
21.36991400000000	-1.21124200000000	139.91786900000000	-17.88112800000000	0.33307800000000	0.00000000000000	0.12501800000000	-55.45304700000000	758.38368200000002	-53.85265000000000	0.08954100000000	0.00000000000000	-0.07934000000000	0.00000000000000	-12.83873300000000	0.00000000000000	0.00000000000000	-15.93658700000000	0.00000000000000	
21.37158700000000	-0.49965600000000	146.31775600000000	-17.51378200000000	0.33411500000000	0.00000000000000	0.12549400000000	-56.36570500000000	754.36707500000000	-53.23890200000000	0.08881700000000	0.00000000000000	-0.07918800000000	0.00000000000000	-12.77885000000000	0.00000000000000	0.00000000000000	-15.91772400000000	0.00000000000000	
21.37324700000000	0.25515900000000	152.88957900000000	-17.11294600000000	0.33510700000000	0.00000000000000	0.12595700000000	-57.27915400000000	750.17647199999999	-52.59769700000000	0.08809300000000	0.00000000000000	-0.07903200000000	0.00000000000000	-12.70760100000000	0.00000000000000	0.00000000000000	-15.89935600000000	0.00000000000000	
21.37491700000000	1.05390800000000	159.62914799999999	-16.67678900000000	0.33605600000000	0.00000000000000	0.12640800000000	-58.19149800000000	745.80972599999996	-51.92926200000000	0.08737200000000	0.00000000000000	-0.07887300000000	0.00000000000000	-12.62384500000000	0.00000000000000	0.00000000000000	-15.88127000000000	0.00000000000000	
